<?xml version="1.0" standalone="no"?>
<!DOCTYPE svg PUBLIC "-//W3C//DTD SVG 20010904//EN"
 "http://www.w3.org/TR/2001/REC-SVG-20010904/DTD/svg10.dtd">
<svg version="1.0" xmlns="http://www.w3.org/2000/svg"
 width="289.000000pt" height="175.000000pt" viewBox="0 0 289.000000 175.000000"
 preserveAspectRatio="xMidYMid meet">
<metadata>
Created by potrace 1.16, written by Peter Selinger 2001-2019
</metadata>
<g transform="translate(0.000000,175.000000) scale(0.100000,-0.100000)"
fill="#000000" stroke="none">
<path d="M1212 1458 c4 -10 57 -46 96 -64 17 -8 15 -22 -7 -45 -15 -17 -23
-19 -39 -10 -14 7 -23 8 -27 1 -3 -5 -1 -10 4 -10 6 0 11 -5 11 -11 0 -6 -9
-9 -20 -6 -13 3 -32 -6 -57 -29 -20 -18 -39 -32 -41 -29 -3 2 6 13 19 24 13
11 20 23 16 27 -4 5 -12 2 -16 -5 -5 -7 -13 -11 -19 -7 -13 8 -42 -3 -42 -16
0 -5 -7 -16 -15 -24 -13 -14 -16 -14 -21 0 -3 8 6 31 21 50 15 20 25 43 21 51
-5 13 -2 13 19 -1 14 -9 23 -19 21 -23 -3 -4 8 -8 24 -9 23 -2 32 4 43 25 14
25 13 28 -8 45 -27 21 -34 22 -72 6 -33 -13 -106 -19 -146 -12 -18 4 -32 15
-37 30 -10 24 -43 33 -55 14 -9 -14 12 -48 35 -55 28 -9 25 -43 -6 -70 l-26
-22 23 -17 c27 -19 65 -21 75 -4 5 8 10 7 18 -4 6 -8 21 -18 34 -22 12 -4 22
-14 22 -22 0 -9 11 -14 31 -14 51 0 18 -27 -57 -46 -14 -4 -23 -2 -22 2 5 14
-5 17 -29 10 -27 -9 -64 9 -123 61 -52 46 -205 124 -226 116 -8 -3 -14 -1 -14
4 0 13 -69 33 -76 22 -3 -5 -1 -9 5 -9 5 0 18 -13 28 -30 11 -20 23 -28 34
-25 23 8 45 -21 30 -39 -18 -21 47 -58 104 -58 30 -1 52 -8 65 -21 28 -25 19
-32 -21 -18 -18 6 -40 11 -51 11 -15 0 -17 -3 -8 -19 5 -11 11 -32 13 -48 2
-15 8 -37 15 -48 11 -19 11 -18 12 8 0 32 4 33 39 8 15 -11 40 -23 56 -27 16
-4 43 -22 60 -39 16 -18 37 -35 45 -38 9 -3 4 -6 -13 -6 -16 -1 -26 -6 -25
-13 2 -9 -9 -12 -38 -10 -28 2 -54 -4 -78 -17 -47 -27 -64 -26 -123 3 -35 18
-50 33 -58 57 -6 18 -17 35 -25 37 -10 4 -11 -5 -6 -39 4 -24 11 -46 15 -49 5
-3 12 -16 16 -30 4 -14 18 -41 31 -60 13 -19 24 -40 24 -46 0 -6 9 -14 21 -17
15 -4 23 1 30 20 12 32 34 24 34 -13 0 -19 -5 -28 -14 -26 -10 2 -12 -4 -7
-23 4 -16 3 -24 -3 -21 -5 4 -13 1 -17 -5 -5 -9 0 -10 18 -6 30 8 45 -15 22
-33 -8 -7 -14 -18 -14 -25 0 -21 -21 -23 -64 -9 -47 17 -46 17 -46 0 0 -8 20
-19 48 -26 51 -14 81 -14 96 1 6 5 14 9 20 9 5 0 0 -9 -12 -21 -23 -20 -69
-28 -91 -15 -6 4 -11 3 -11 -3 0 -5 -12 -7 -27 -5 -16 3 -62 7 -103 10 -98 7
-111 11 -87 29 16 11 17 17 7 36 -9 15 -10 47 -5 101 6 74 5 78 -14 78 -22 0
-35 -28 -25 -55 6 -15 5 -16 -15 -4 -11 8 -21 18 -21 24 0 16 -110 16 -116 1
-3 -8 -14 -12 -27 -9 -16 3 -18 2 -8 -5 11 -8 10 -14 -4 -36 -10 -14 -22 -26
-29 -26 -6 0 -6 4 3 9 9 6 10 11 3 15 -6 4 -9 13 -6 20 8 20 -28 30 -38 11 -5
-8 -13 -15 -19 -15 -13 0 -1 61 17 81 7 8 14 21 14 27 0 7 5 12 10 12 6 0 10
7 10 15 0 8 -4 15 -9 15 -5 0 -7 9 -4 20 7 26 -4 26 -25 -1 -10 -11 -26 -22
-37 -24 -11 -2 -21 -4 -21 -4 -7 -4 20 -87 29 -93 9 -6 9 -8 -1 -8 -7 0 -11
-4 -8 -9 3 -4 -3 -16 -14 -26 -11 -10 -20 -23 -20 -30 0 -18 60 -57 87 -57 18
0 22 -5 18 -18 -7 -24 7 -32 36 -22 19 7 30 1 72 -40 27 -26 53 -48 58 -48 6
0 23 10 39 22 16 12 33 19 36 15 8 -8 -6 -28 -16 -22 -4 3 -13 -2 -20 -10 -9
-11 -4 -16 30 -25 31 -8 45 -8 55 0 8 6 24 10 37 8 l23 -3 -25 -15 c-14 -8
-41 -15 -60 -16 -19 -1 -45 -5 -57 -9 -15 -5 -23 -3 -23 4 0 7 5 9 11 5 7 -4
10 -1 7 7 -3 9 -24 15 -62 17 -40 3 -56 0 -52 -7 4 -6 13 -11 21 -11 8 0 15
-13 17 -32 2 -27 8 -34 29 -36 15 -2 35 -12 45 -23 9 -10 22 -19 28 -19 15 -1
83 -60 68 -60 -7 0 -3 -10 9 -24 18 -21 25 -23 51 -14 32 11 40 7 45 -22 3
-24 33 -60 49 -60 7 0 26 13 44 30 27 26 34 28 46 15 12 -12 18 -12 44 3 19
11 30 25 30 40 0 15 6 22 18 22 31 0 92 83 107 145 10 45 23 55 71 55 37 0 44
3 44 19 0 24 19 32 44 19 15 -8 16 -12 5 -18 -9 -6 -5 -11 15 -16 21 -5 32 -1
47 14 10 12 25 19 33 16 8 -3 17 -1 20 5 4 6 13 8 21 4 8 -3 15 0 15 6 0 6 -4
11 -10 11 -16 0 23 86 57 124 17 20 29 36 27 36 -2 0 4 8 14 18 17 17 66 26
56 11 -7 -12 30 -16 54 -5 14 6 22 18 22 34 0 14 8 31 17 38 10 7 15 16 10 20
-4 4 -20 -7 -35 -26 -20 -24 -34 -32 -46 -27 -16 7 -16 10 5 44 56 92 67 109
85 123 10 9 15 10 10 3 -12 -20 38 -16 56 5 9 9 21 34 28 55 7 24 36 62 76
101 67 66 77 81 44 71 -26 -8 -25 2 1 24 21 17 21 17 -32 39 -71 30 -145 81
-158 109 -13 28 -61 28 -69 1 -7 -27 -22 -22 -22 7 0 24 -3 25 -56 25 -39 0
-60 5 -68 15 -9 12 -18 13 -43 6 -24 -7 -35 -6 -44 5 -14 17 -42 19 -37 2z"/>
<path d="M1932 1448 c2 -13 19 -48 39 -78 20 -30 35 -58 33 -62 -2 -3 -26 -9
-53 -13 -41 -6 -50 -11 -55 -31 -7 -26 -17 -29 -47 -13 -16 8 -23 6 -39 -13
-11 -13 -19 -29 -20 -35 0 -16 42 -44 69 -46 19 -1 19 -2 3 -20 -16 -18 -17
-18 -31 2 -19 29 -30 26 -28 -6 1 -17 -3 -27 -10 -26 -7 2 -10 -3 -7 -11 7
-18 -25 -49 -42 -42 -8 3 -14 -1 -14 -10 0 -9 7 -14 18 -13 23 4 57 -15 94
-54 26 -28 28 -32 12 -36 -11 -2 -23 -9 -27 -17 -4 -8 -17 -14 -27 -14 -10 0
-24 -8 -29 -17 -6 -10 -11 -12 -11 -5 0 19 -19 14 -45 -13 -14 -13 -25 -21
-25 -18 0 3 -6 0 -14 -6 -8 -7 -12 -21 -9 -31 5 -21 -11 -28 -22 -10 -12 20
-25 10 -25 -19 0 -17 -4 -33 -10 -36 -5 -3 -10 1 -10 9 0 17 -12 21 -24 9 -12
-13 -30 -10 -44 7 -12 13 -13 13 -8 -2 3 -10 0 -20 -5 -24 -6 -3 -9 -17 -6
-30 3 -15 0 -23 -7 -22 -27 6 -21 -41 7 -52 21 -9 21 -9 -4 -7 -15 2 -34 9
-42 16 -9 7 -21 10 -27 6 -18 -11 -11 -54 11 -65 11 -7 18 -14 15 -17 -3 -4
-28 8 -55 25 -40 25 -51 28 -55 15 -11 -29 -6 -52 15 -58 16 -5 18 -9 8 -21
-10 -12 -9 -18 4 -32 16 -15 17 -15 17 1 0 11 5 14 16 10 8 -3 13 -12 10 -20
-4 -8 3 -17 17 -23 21 -8 19 -11 -13 -14 -10 -1 -14 -11 -13 -31 2 -29 1 -29
-13 -10 -8 11 -20 20 -27 20 -7 0 -14 15 -17 34 -4 27 -7 31 -16 20 -18 -23
-24 -48 -14 -54 6 -4 10 -17 10 -29 0 -13 7 -29 15 -36 19 -16 12 -27 -16 -25
-13 1 -26 10 -29 21 -7 18 -7 18 -18 -3 -16 -30 -16 -32 13 -43 24 -9 25 -13
21 -72 -5 -74 -18 -113 -41 -122 -14 -5 -15 -9 -5 -21 29 -35 100 -52 100 -24
0 5 7 9 15 9 8 0 15 6 15 14 0 19 -23 33 -28 18 -4 -13 -42 -17 -42 -4 0 5 11
18 25 30 29 25 26 43 -5 35 -18 -5 -19 -2 -12 18 5 13 15 25 22 27 7 3 10 0 6
-7 -4 -6 -3 -11 3 -11 6 0 8 27 6 68 -2 37 -1 61 2 54 2 -6 9 -10 14 -6 5 3 8
2 7 -3 -5 -16 23 -54 35 -47 7 4 9 4 5 0 -14 -16 15 -68 43 -78 16 -5 27 -13
24 -18 -3 -4 9 -10 26 -14 17 -3 40 -17 51 -31 21 -27 47 -32 66 -13 15 15 16
42 2 33 -12 -8 -50 3 -50 15 0 4 9 10 21 13 16 4 19 11 14 26 -5 15 -2 21 10
21 10 0 15 6 13 17 -2 11 -11 17 -21 15 -16 -3 -16 -1 1 29 23 42 42 48 42 14
0 -14 4 -24 9 -20 5 3 13 1 16 -5 4 -6 15 -8 26 -5 11 4 42 -5 75 -20 47 -22
60 -25 86 -16 17 6 43 11 57 11 42 1 66 29 68 81 1 31 -3 46 -12 46 -7 0 -12
-11 -12 -25 0 -13 -7 -28 -14 -33 -12 -7 -12 -9 1 -9 12 0 11 -3 -2 -17 -10
-9 -32 -16 -50 -16 -18 0 -38 -7 -45 -16 -10 -13 -12 -10 -13 22 0 35 -2 38
-22 31 -23 -7 -23 -6 -4 15 11 11 25 21 31 21 7 0 16 7 19 16 5 13 -2 15 -37
14 -58 -2 -66 0 -39 11 27 10 24 36 -3 31 -10 -2 -14 1 -10 7 3 6 13 11 21 11
21 0 17 17 -7 23 -11 3 -23 15 -26 26 -7 27 -20 27 -28 1 -9 -28 -23 -25 -21
5 1 19 7 25 23 25 12 0 24 -4 27 -9 3 -5 26 -14 51 -20 41 -10 45 -14 45 -41
0 -17 5 -30 10 -30 6 0 10 5 10 10 0 6 5 10 10 10 6 0 10 -9 10 -19 0 -28 17
-35 25 -11 4 11 15 20 26 20 16 0 19 4 14 22 -6 16 -4 20 8 15 8 -3 19 -1 25
5 13 13 52 0 52 -18 0 -8 7 -14 15 -14 23 0 31 -31 11 -45 -9 -7 -14 -19 -10
-29 7 -19 24 -21 24 -3 0 17 39 15 50 -2 8 -13 30 -7 30 8 0 4 -9 17 -20 28
-24 26 -35 68 -21 78 6 3 9 10 6 15 -3 5 -1 11 5 15 5 3 10 -1 10 -9 0 -26 17
-18 22 9 3 14 1 25 -3 25 -5 0 -9 11 -9 24 0 16 -7 26 -21 29 -12 3 -18 10
-14 16 3 6 0 11 -9 11 -8 0 -16 -4 -18 -8 -1 -5 -14 -5 -28 -1 -16 4 -19 7 -7
8 9 1 17 5 17 10 0 13 -26 21 -36 12 -5 -5 -26 -1 -48 9 -25 12 -33 20 -25 24
10 4 10 8 3 11 -6 3 -20 12 -30 20 -17 14 -16 14 11 5 17 -6 35 -18 42 -26 6
-9 32 -17 60 -19 104 -9 147 -14 160 -19 8 -3 13 2 13 12 1 14 5 12 23 -8 26
-30 63 -29 72 1 4 11 11 17 16 14 5 -4 15 -3 21 1 7 5 19 9 28 10 8 2 24 5 35
8 11 2 23 5 28 5 4 1 7 8 7 17 0 29 48 64 87 64 33 0 39 10 10 17 -7 1 -28 7
-47 12 -33 10 -33 10 12 5 27 -3 49 -1 53 6 3 5 37 10 75 10 38 0 72 5 75 10
4 6 33 24 66 41 68 34 70 54 3 46 -55 -6 -49 8 7 17 31 5 40 10 35 22 -3 9 -6
20 -6 26 0 6 -7 8 -15 4 -9 -3 -15 0 -15 9 0 18 -17 20 -23 3 -3 -10 -7 -10
-18 -2 -16 13 -92 28 -130 26 -15 -1 -32 5 -39 13 -8 10 -9 15 -2 15 6 0 9 7
6 15 -4 9 0 15 9 15 8 0 14 7 13 16 0 9 5 19 12 21 7 3 12 -4 12 -15 0 -26 10
-29 104 -31 75 -2 78 -1 73 18 -3 12 -1 19 4 15 5 -3 9 -1 9 4 0 11 -30 37
-52 45 -10 4 -18 15 -18 26 0 11 -6 21 -12 24 -10 3 -10 7 1 20 8 10 9 17 3
17 -6 0 -24 14 -40 31 -24 25 -32 29 -53 21 -14 -6 -34 -6 -47 -1 -14 5 -31 5
-42 -1 -10 -6 -49 -10 -85 -10 -58 0 -68 -3 -72 -20 -3 -11 -10 -20 -15 -20
-5 0 -7 4 -4 9 17 26 -42 102 -94 123 -38 16 -101 19 -116 7 -7 -6 -18 -8 -23
-5 -5 4 -13 1 -17 -5 -16 -27 -168 27 -214 76 -29 31 -42 32 -38 3z"/>
</g>
</svg>
